<svg width="64" height="64" viewBox="0 0 64 64" fill="none" xmlns="http://www.w3.org/2000/svg">
<path d="M32 0.5H63.5V63.5H32C14.603 63.5 0.5 49.397 0.5 32C0.5 14.603 14.603 0.5 32 0.5Z" fill="#E04F5F" stroke="#C82121"/>
<path d="M35.9778 32.0653L45.0403 21.5403C46.0278 20.3903 45.9028 18.6653 44.7528 17.6653C43.6028 16.6778 41.8778 16.8028 40.8903 17.9528L32.3528 27.8653L23.8278 17.9653C22.8403 16.8153 21.1028 16.6903 19.9528 17.6778C18.8028 18.6653 18.6778 20.4028 19.6653 21.5528L28.7278 32.0653L19.6653 42.5903C18.6778 43.7403 18.8028 45.4653 19.9528 46.4653C20.4653 46.9153 21.1028 47.1278 21.7403 47.1278C22.5153 47.1278 23.2778 46.8028 23.8153 46.1778L32.3403 36.2778L40.8653 46.1778C41.4028 46.8028 42.1778 47.1278 42.9403 47.1278C43.5778 47.1278 44.2153 46.9153 44.7278 46.4653C45.8778 45.4778 46.0028 43.7403 45.0153 42.5903L35.9778 32.0653Z" fill="white"/>
</svg>
