<svg width="192" height="40" viewBox="0 0 120 25" fill="none" xmlns="http://www.w3.org/2000/svg">
<path d="M10.6996 19.3593L6.77641 13.0887H4.41701V19.3593H0V0.191676H6.83127C11.1385 0.191676 13.9918 2.79299 13.9918 6.7908C13.9918 9.33735 12.7846 11.2541 10.7545 12.2399L15.3635 19.3593H10.6996ZM4.41701 4.24425V9.33735H6.55693C8.34019 9.33735 9.57476 8.70756 9.57476 6.7908C9.57476 4.90142 8.34019 4.24425 6.55693 4.24425H4.41701ZM24.6639 4.87404C27.9012 4.87404 32.428 7.31106 31.5226 13.7459H21.5638C22.0576 15.2245 23.347 15.9912 25.0754 15.9912C26.8313 15.9912 27.38 15.6079 28.3676 15.1971L30.7545 17.4973C29.4925 18.7295 27.7915 19.6331 24.9108 19.6331C21.3717 19.6331 17.1468 17.1961 17.1468 12.2946C17.1468 7.31106 21.4266 4.87404 24.6639 4.87404ZM24.6639 8.57065C23.4294 8.57065 22.1674 9.28258 21.6187 10.7065H27.6818C27.2428 9.28258 25.8985 8.57065 24.6639 8.57065ZM44.2524 5.12048H48.5871V19.3593C48.5871 23.6856 44.1975 25 41.0151 25C39.5062 25 38.1344 24.7536 37.2565 24.2881V20.7557C38.1344 21.2212 39.4513 21.4129 41.0151 21.4129C43.5665 21.4129 44.2524 20.0986 44.2524 19.3593V17.9354C44.0604 18.4283 42.7709 19.6331 40.5761 19.6331C37.3114 19.6331 33.5528 17.3056 33.5528 12.2125C33.5528 7.31106 37.3114 4.87404 40.5761 4.87404C42.7709 4.87404 44.0604 6.13363 44.2524 6.43483V5.12048ZM41.2071 15.8269C42.9904 15.8269 44.4444 14.5947 44.4444 12.2125C44.4444 9.91238 42.9904 8.68017 41.2071 8.68017C39.3416 8.68017 37.7503 9.93976 37.7503 12.2125C37.7503 14.5674 39.3416 15.8269 41.2071 15.8269ZM56.5981 19.5783C53.9369 19.5783 51.2208 17.7985 51.2208 13.2804V5.12048H55.5556V12.9792C55.5556 15.1424 56.2963 15.8269 57.668 15.8269C59.6159 15.8269 60.7407 13.9376 61.0151 13.1161V5.12048H65.3498V19.3593H61.0151V16.8949C60.7407 17.5794 59.2867 19.5783 56.5981 19.5783ZM72.4829 0V19.3593H68.1481V0H72.4829ZM85.5418 5.12048H89.8766V19.3593H85.5418V17.9354C85.3498 18.4283 84.0604 19.6331 81.8656 19.6331C78.6008 19.6331 74.8422 17.3056 74.8422 12.2125C74.8422 7.31106 78.6008 4.87404 81.8656 4.87404C84.0604 4.87404 85.3498 6.13363 85.5418 6.43483V5.12048ZM82.4966 15.8269C84.2798 15.8269 85.7339 14.5947 85.7339 12.2125C85.7339 9.91238 84.2798 8.68017 82.4966 8.68017C80.631 8.68017 79.0398 9.93976 79.0398 12.2125C79.0398 14.5674 80.631 15.8269 82.4966 15.8269ZM101.838 4.90142C102.222 4.90142 102.606 4.90142 102.963 4.98357V9.11829C102.634 9.03614 102.25 9.03614 101.975 9.03614C99.3416 9.03614 97.2291 10.9255 97.0096 13.5542V19.3593H92.6749V5.12048H97.0096V8.59803C97.668 6.46221 99.3141 4.90142 101.838 4.90142ZM115.062 19.3593L110.425 13.828L109.52 14.7864V19.3593H105.185V14.184V0H109.52V9.50164L113.553 5.12048H118.738L113.086 11.0624L120 19.3593H115.062Z" fill="#4B3DD4"/>
</svg>
