<svg width="64" height="64" viewBox="0 0 64 64" fill="none" xmlns="http://www.w3.org/2000/svg">
<path d="M32 0.5H63.5V63.5H32C14.603 63.5 0.5 49.397 0.5 32C0.5 14.603 14.603 0.5 32 0.5Z" fill="#32BEA6" stroke="#09701A"/>
<path d="M49.3784 21.5035C48.6534 19.616 47.1659 19.916 45.5534 20.241C44.5909 20.441 40.3034 21.691 33.5409 28.841C30.7284 31.8035 28.8784 34.166 27.6534 35.966C26.9034 35.0535 26.0534 34.066 25.1534 33.1785C22.3909 30.416 19.3034 28.516 19.1784 28.441C17.8909 27.6535 16.2034 28.0535 15.4034 29.3535C14.6159 30.641 15.0159 32.3285 16.3034 33.1285C16.3284 33.141 18.9784 34.7785 21.2534 37.066C23.5784 39.391 25.6909 42.541 25.7159 42.5785C26.2284 43.3535 27.0909 43.8035 28.0034 43.8035C28.1534 43.8035 28.3159 43.791 28.4784 43.766C29.5534 43.5785 30.4034 42.7785 30.6659 41.7285C30.6784 41.7035 31.7659 38.691 37.5034 32.641C42.1284 27.7535 45.2159 26.2035 46.2909 25.7785C46.3034 25.7785 46.3034 25.7785 46.3284 25.7785C46.3284 25.7785 46.3659 25.766 46.4284 25.7285C46.6159 25.6535 46.7159 25.6285 46.7159 25.6285C46.6659 25.641 46.6409 25.641 46.6409 25.641V25.6285C47.1409 25.416 48.0659 25.016 48.0784 25.0035C49.4659 24.4035 49.9284 22.9035 49.3784 21.5035Z" fill="white"/>
</svg>
